<?xml version="1.0" encoding="UTF-8" standalone="no"?>
<!-- Copyright 2017 mathsisfun.com -->
<svg xmlns="http://www.w3.org/2000/svg" width="595.4" height="47.4" version="1.1" style="font-size:16.5px; stroke-width:1px;">
<defs>
	<marker id="aa2" style="overflow:visible;" orient="auto">
		<path transform="matrix(0.8,0,0,0.8,10,0)" style="fill:#ff0000; stroke:#ff0000; stroke-width:1pt;" d="M 0,0 5,-5 -12.5,0 5,5 Z"/>
	</marker>
	<marker id="aa1" style="overflow:visible;" orient="auto">
		<path transform="matrix(-0.8,0,0,-0.8,-10,0)" style="fill:#0000ff; stroke:#0000ff; stroke-width:1pt;" d="M 0,0 5,-5 -12.5,0 5,5 Z"/>
	</marker>
</defs>
<g transform="translate(264.937,-729.078)">
	<path style="fill:none; fill-opacity:0.75; stroke:#ff0000; stroke-width:0.34px;" d="m -202,729.1 v 25.1"/>
	<path style="fill:none; fill-opacity:0.75; stroke:#ff0000; stroke-width:0.34px;" d="m -175.9,729.1 v 25.1"/>
	<path style="fill:none; fill-opacity:0.75; stroke:#ff0000; stroke-width:0.34px;" d="m -123.7,729.1 v 25.1"/>
	<path style="fill:none; fill-opacity:0.75; stroke:#ff0000; stroke-width:0.34px;" d="m -97.6,729.1 v 25.1"/>
	<path style="fill:none; fill-opacity:0.75; stroke:#ff0000; stroke-width:0.34px;" d="m -71.5,729.1 v 25.1"/>
	<path style="fill:none; fill-opacity:0.75; stroke:#ff0000; stroke-width:0.34px;" d="m -45.4,729.1 v 25.1"/>
	<path style="fill:none; fill-opacity:0.75; stroke:#ff0000; stroke-width:0.34px;" d="m 6.8,729.1 v 25.1"/>
	<path style="fill:none; fill-opacity:0.75; stroke:black; stroke-width:1.03;" d="m 32.9,729.1 v 25.1"/>
	<path style="fill:none; fill-opacity:0.75; stroke:#0000ff; stroke-width:0.34px;" d="m 59.1,729.1 v 25.1"/>
	<path style="fill:none; fill-opacity:0.75; stroke:#0000ff; stroke-width:0.34px;" d="m 85.2,729.1 v 25.1"/>
	<path style="fill:none; fill-opacity:0.75; stroke:#0000ff; stroke-width:0.34px;" d="m 111.3,729.1 v 25.1"/>
	<path style="fill:none; fill-opacity:0.75; stroke:#0000ff; stroke-width:0.34px;" d="m 137.4,729.1 v 25.1"/>
	<path style="fill:none; fill-opacity:0.75; stroke:#0000ff; stroke-width:0.34px;" d="m 163.5,729.1 v 25.1"/>
	<path style="fill:none; fill-opacity:0.75; stroke:#0000ff; stroke-width:0.34px;" d="m 189.6,729.1 v 25.1"/>
	<path style="fill:none; fill-opacity:0.75; stroke:#0000ff; stroke-width:0.34px;" d="m 215.7,729.1 v 25.1"/>
	<path style="fill:none; fill-opacity:0.75; stroke:#0000ff; stroke-width:0.34px;" d="m 241.8,729.1 v 25.1"/>
	<path style="fill:none; fill-opacity:0.75; stroke:#0000ff; stroke-width:0.34px;" d="m 267.9,729.1 v 25.1"/>
	<text x="55.7" y="774.7" style="font-family:Arial; fill:#0000ff;">1</text>
	<text x="81.3" y="774.7" style="font-family:Arial; fill:#0000ff;">2</text>
	<text x="107.2" y="774.6" style="font-family:Arial; fill:#0000ff;">3</text>
	<text x="133.5" y="774.7" style="font-family:Arial; fill:#0000ff;">4</text>
	<text x="159.3" y="774.5" style="font-family:Arial; fill:#0000ff;">5</text>
	<text x="185.4" y="774.6" style="font-family:Arial; fill:#0000ff;">6</text>
	<text x="211.4" y="774.6" style="font-family:Arial; fill:#0000ff;">7</text>
	<text x="-0.2" y="774.7" style="font-family:Arial; fill:#ff0000;">-1</text>
	<text x="-27.3" y="774.7" style="font-family:Arial; fill:#ff0000;">-2</text>
	<text x="-53.4" y="774.6" style="font-family:Arial; fill:#ff0000;">-3</text>
	<text x="-79.5" y="774.7" style="font-family:Arial; fill:#ff0000;">-4</text>
	<text x="-105.6" y="774.5" style="font-family:Arial; fill:#ff0000;">-5</text>
	<text x="-131.6" y="774.6" style="font-family:Arial; fill:#ff0000;">-6</text>
	<text x="-157.7" y="774.6" style="font-family:Arial; fill:#ff0000;">-7</text>
	<text x="-183.7" y="774.6" style="font-family:Arial; fill:#ff0000;">-8</text>
	<text x="-209.8" y="774.6" style="font-family:Arial; fill:#ff0000;">-9</text>
	<text x="237.5" y="774.6" style="font-family:Arial; fill:#0000ff;">8</text>
	<text x="263.6" y="774.6" style="font-family:Arial; fill:#0000ff;">9</text>
	<path style="fill:none; fill-opacity:0.75; stroke:#ff0000; stroke-width:0.34px;" d="m -149.8,729.1 v 25.1"/>
	<path style="fill:none; fill-opacity:0.75; stroke:#ff0000; stroke-width:0.34px;" d="m -19.3,729.1 v 25.1"/>
	<path style="fill:none; fill-opacity:0.75; stroke:#ff0000; stroke-width:0.34px;" d="m -228.1,729.1 v 25.1"/>
	<text x="-240.4" y="774.6" style="font-family:Arial; fill:#ff0000;">-10</text>
	<path style="fill:none; fill-opacity:0.75; stroke:#0000ff; stroke-width:0.34px;" d="m 294,729.1 v 25.1"/>
	<text x="284.5" y="774.6" style="font-family:Arial; fill:#0000ff;">10</text>
	<path style="marker-end:url(#aa1); fill:none; fill-opacity:0.75; stroke:#0000ff; stroke-width:1.3;" d="M 32.2,743.2 H 328"/>
	<path style="marker-start:url(#aa2); fill:none; fill-opacity:0.75; stroke:#ff0000; stroke-width:1.3;" d="M -262.4,743.2 H 32.7"/>
	<text x="27.1" y="776.1" style="font-family:Arial; font-size:23.9px; fill:black;">0</text>
	<rect x="-108" y="4146.4" width="70" height="88" style="stroke-width:1;"/>
</g>
</svg>